<?xml version="1.0" encoding="UTF-8"?>
<svg id="Layer_2" data-name="Layer 2" xmlns="http://www.w3.org/2000/svg" viewBox="0 0 376.79 377.58">
  <g id="Social">
    <path d="M376.21,188.45c0,27.8,1.5,55.6-.3,83.2-4.3,67.8-47,100.7-99.9,103.6-57.8,3.2-115.5,3-173.3,0-50.2-2.6-95.4-34.2-99.5-100.1-3.6-58.7-5.2-117.9.8-176.6C9.91,40.85,41.61,9.25,99.11,4.05c59.9-5.4,120.4-5.4,180.3,0,60.1,5.3,93.4,43.3,96.7,104.7,1.3,26.5.2,53.1.1,79.7h0ZM342.21,188.35h-.1c0-26,.8-52.1-.2-78-1.8-46.4-26.6-71.5-72.6-73.4-53.2-2.2-106.4-2.2-159.6,0-46.3,2-71.8,26.8-73,73-1.3,52.6-1.4,105.2-.1,157.8,1.2,47.6,25.7,72.9,73.5,74.5,52.6,1.8,105.3,1.7,157.9,0,48.7-1.6,72.1-26.7,74-75.8,1-26.1.2-52.1.2-78.1h0Z" style="fill: #fdbb11; stroke-width: 0px;"/>
    <path d="M189.61,92.95c52.3.1,96.1,43.7,96.2,95.9.2,53.4-43.4,97.2-96.7,97.2s-96.5-44-96.2-97.6c.3-52.1,44.3-95.6,96.7-95.5h0ZM251.81,189.05c-.2-34.7-28.2-62-63.4-61.7-34.7.2-62.3,28.6-61.7,63.4.6,33.8,28.7,61.3,62.5,61.3,34.8-.1,62.8-28.3,62.6-63h0Z" style="fill: #fdbb11; stroke-width: 0px;"/>
    <path d="M311.91,89.25c-1.5,13.2-8.1,21.3-22,21.5-13.4.2-22.9-9.7-22-23,1-13.8,9.3-21,22.6-20.7,13.5.4,20.4,8.9,21.4,22.2h0Z" style="fill: #fdbb11; stroke-width: 0px;"/>
  </g>
</svg>